# xmcd
#
# Track frame offsets: 
#        150
#        23333
#        43105
#        64281
#        86402
#        114175
#        140547
#        164157
#        187097
#        209943
#        226835
#        248145
#        266369
#
# Disc length: 3775 seconds
#
# Revision: 0
# Processed by: cddbd v1.5.2PL0 Copyright (c) Steve Scherf et al.
# Submitted via: ExactAudioCopy v1.0b4
#
DISCID=b70ebd0d
DTITLE=Bryce Janey - Blues in My Soul
DYEAR=2010
DGENRE=Blues Rock
TTITLE0=Country Fever
TTITLE1=Funky Guitar Blues
TTITLE2=Mean Old Town
TTITLE3=Runnin' Down The Road
TTITLE4=Walkin' on a Live Wire
TTITLE5=Mission For Love
TTITLE6=Another Fine Day
TTITLE7=City Underwater
TTITLE8=Hard Workin' Man
TTITLE9=Medicine Man
TTITLE10=Get You Off My Mind
TTITLE11=Killing Floor
TTITLE12=In This Place
EXTD=
EXTT0=
EXTT1=
EXTT2=
EXTT3=
EXTT4=
EXTT5=
EXTT6=
EXTT7=
EXTT8=
EXTT9=
EXTT10=
EXTT11=
EXTT12=
PLAYORDER=
